<?xml version="1.0" encoding="UTF-8"?>
<svg id="Layer_1" data-name="Layer 1" xmlns="http://www.w3.org/2000/svg" viewBox="0 0 196.21 51">
  <defs>
    <style>
      .cls-1 {
        fill: #fdd207;
      }

      .cls-1, .cls-2 {
        stroke-width: 0px;
      }

      .cls-2 {
        fill: #fff;
      }
    </style>
  </defs>
  <g id="logo">
    <path class="cls-2" d="M10.56,24.74c-.2.1-.41.18-.65.26.24.08.45.17.65.27.59.3,1.02.78,1.3,1.43.28.65.41,1.55.41,2.7v6.25c0,.94.21,1.65.64,2.15.43.5,1.06.74,1.89.74h.62v4.77h-2.01c-2.15,0-3.78-.6-4.89-1.82-1.11-1.21-1.67-2.94-1.67-5.18v-7.07c0-.62-.14-1.09-.42-1.39-.28-.3-.65-.45-1.11-.45h-1.14v-4.77h1.14c.46,0,.83-.16,1.11-.47.28-.31.42-.77.42-1.37v-7.07c0-2.27.55-4,1.67-5.2,1.11-1.2,2.74-1.8,4.89-1.8h2.01v4.77h-.62c-.83,0-1.46.25-1.89.74-.43.5-.64,1.21-.64,2.15v6.26c0,1.15-.14,2.05-.41,2.7-.28.65-.71,1.12-1.3,1.41Z"/>
    <path class="cls-2" d="M52.09,22.74v4.77h-1.15c-.46,0-.83.15-1.11.45-.28.3-.41.76-.41,1.39v7.07c0,2.24-.56,3.97-1.67,5.18-1.11,1.21-2.74,1.82-4.89,1.82h-2.01v-4.77h.62c.83,0,1.46-.25,1.89-.74.43-.5.64-1.21.64-2.15v-6.26c0-1.15.14-2.04.42-2.7.28-.65.71-1.13,1.3-1.43.2-.1.41-.19.65-.27-.24-.08-.45-.17-.65-.26-.59-.29-1.02-.76-1.3-1.41-.28-.65-.42-1.55-.42-2.7v-6.25c0-.94-.21-1.65-.64-2.15-.43-.5-1.06-.74-1.89-.74h-.62v-4.77h2.01c2.15,0,3.78.6,4.89,1.8,1.11,1.2,1.67,2.93,1.67,5.2v7.07c0,.6.14,1.05.41,1.37.28.31.65.47,1.11.47h1.15Z"/>
    <path class="cls-2" d="M20.33,27.12c-1.31,0-2.43-.45-3.36-1.35-.93-.9-1.4-2.05-1.4-3.46s.47-2.54,1.4-3.41c.93-.87,2.05-1.3,3.36-1.3s2.47.43,3.39,1.3c.92.87,1.37,2.01,1.37,3.41s-.46,2.56-1.37,3.46c-.92.9-2.05,1.35-3.39,1.35Z"/>
    <path class="cls-2" d="M36.63,26.93c-1.31,0-2.43-.45-3.36-1.35-.93-.9-1.4-2.05-1.4-3.46s.47-2.54,1.4-3.41c.93-.87,2.05-1.3,3.36-1.3s2.47.43,3.39,1.3c.92.87,1.37,2.01,1.37,3.41s-.46,2.56-1.37,3.46c-.92.9-2.05,1.35-3.39,1.35Z"/>
    <path class="cls-2" d="M28.78,16.11h3.01l-7.15,20.42h-3.01l7.15-20.42Z"/>
  </g>
  <g>
    <path class="cls-2" d="M80.59,16.44l-7.64,17.82h-4.96l-7.61-17.82h5.45l4.84,11.61,4.94-11.61h4.99Z"/>
    <path class="cls-2" d="M82.07,18.2c-.54-.49-.81-1.1-.81-1.83s.27-1.34.81-1.83c.54-.49,1.26-.74,2.14-.74s1.59.23,2.14.7c.54.47.82,1.07.82,1.79s-.27,1.4-.82,1.9c-.54.5-1.26.75-2.14.75s-1.6-.25-2.14-.74ZM81.79,20.47h4.84v13.8h-4.84v-13.8Z"/>
    <path class="cls-2" d="M96.28,20.71c.79-.31,1.69-.47,2.71-.47v4.35c-.44-.05-.81-.08-1.09-.08-1.04,0-1.85.28-2.43.84s-.88,1.42-.88,2.57v6.34h-4.84v-13.8h4.61v1.65c.49-.63,1.13-1.1,1.92-1.41Z"/>
    <path class="cls-2" d="M114.88,28.59h-10.03c.2.71.6,1.26,1.18,1.64.59.38,1.32.57,2.2.57.66,0,1.23-.09,1.72-.28.48-.19.97-.49,1.46-.92l2.55,2.65c-1.34,1.49-3.3,2.24-5.88,2.24-1.61,0-3.03-.31-4.25-.92-1.22-.61-2.17-1.46-2.84-2.55s-1.01-2.32-1.01-3.69.33-2.57.98-3.65c.65-1.08,1.56-1.92,2.71-2.53,1.15-.61,2.45-.92,3.89-.92s2.62.28,3.74.85c1.12.57,2.01,1.39,2.66,2.47.65,1.08.98,2.35.98,3.83,0,.03-.03.43-.08,1.2ZM105.73,24.31c-.5.42-.82,1-.95,1.73h5.65c-.14-.73-.45-1.31-.95-1.73s-1.12-.64-1.87-.64-1.37.21-1.87.64Z"/>
    <path class="cls-2" d="M126.71,33.7c-.41.25-.9.45-1.49.59s-1.21.2-1.87.2c-1.8,0-3.18-.44-4.15-1.32-.97-.88-1.45-2.2-1.45-3.95v-4.63h-2.01v-3.61h2.01v-3.59h4.84v3.59h3.16v3.61h-3.16v4.58c0,.49.13.88.39,1.16.26.28.61.42,1.06.42.56,0,1.05-.14,1.48-.43l1.2,3.39Z"/>
    <path class="cls-2" d="M139.7,21.8c1.2,1.04,1.81,2.64,1.81,4.8v7.66h-4.51v-1.78c-.7,1.34-2.05,2.01-4.07,2.01-1.07,0-1.99-.19-2.78-.56-.78-.37-1.37-.88-1.77-1.51s-.6-1.36-.6-2.18c0-1.31.5-2.32,1.5-3.04,1-.72,2.55-1.08,4.63-1.08h2.75c-.08-1.46-1.06-2.19-2.93-2.19-.66,0-1.33.11-2.01.32-.68.21-1.26.5-1.73.88l-1.63-3.28c.76-.51,1.69-.9,2.79-1.18,1.1-.28,2.19-.42,3.3-.42,2.29,0,4.04.52,5.24,1.57ZM135.75,31.03c.42-.27.73-.67.92-1.2v-1.2h-2.09c-1.41,0-2.11.47-2.11,1.4,0,.42.16.76.48,1.02.32.25.76.38,1.32.38s1.05-.14,1.48-.41Z"/>
    <path class="cls-1" d="M144.79,16.44h8.43c1.95,0,3.68.37,5.19,1.09,1.51.73,2.68,1.77,3.51,3.11.83,1.34,1.25,2.91,1.25,4.71s-.42,3.37-1.25,4.71c-.83,1.34-2,2.38-3.51,3.11-1.51.73-3.24,1.09-5.19,1.09h-8.43v-17.82ZM153.01,30.24c1.53,0,2.75-.43,3.68-1.3.92-.86,1.39-2.06,1.39-3.59s-.46-2.72-1.39-3.59c-.93-.87-2.15-1.3-3.68-1.3h-3.18v9.78h3.18Z"/>
    <path class="cls-1" d="M179.61,28.59h-10.03c.2.71.6,1.26,1.18,1.64.59.38,1.32.57,2.2.57.66,0,1.23-.09,1.72-.28.48-.19.97-.49,1.46-.92l2.55,2.65c-1.34,1.49-3.3,2.24-5.88,2.24-1.61,0-3.03-.31-4.25-.92-1.22-.61-2.17-1.46-2.84-2.55s-1.01-2.32-1.01-3.69.33-2.57.98-3.65c.65-1.08,1.56-1.92,2.71-2.53,1.15-.61,2.45-.92,3.89-.92s2.62.28,3.74.85c1.12.57,2.01,1.39,2.66,2.47.65,1.08.98,2.35.98,3.83,0,.03-.03.43-.08,1.2ZM170.46,24.31c-.5.42-.82,1-.95,1.73h5.65c-.14-.73-.45-1.31-.95-1.73s-1.12-.64-1.87-.64-1.37.21-1.87.64Z"/>
    <path class="cls-1" d="M196.21,20.47l-5.7,13.8h-4.99l-5.68-13.8h4.96l3.31,8.43,3.49-8.43h4.61Z"/>
  </g>
</svg>